<?xml version="1.0" encoding="utf-8"?>
<!-- Generator: Adobe Illustrator 26.1.0, SVG Export Plug-In . SVG Version: 6.00 Build 0)  -->
<svg version="1.1" id="Слой_1" xmlns="http://www.w3.org/2000/svg" xmlns:xlink="http://www.w3.org/1999/xlink" x="0px" y="0px"
	 viewBox="0 0 595.28 841.89" style="enable-background:new 0 0 595.28 841.89;" xml:space="preserve">
<style type="text/css">
	.st0{fill:#FFFFFF;}
</style>
<g>
	<path class="st0" d="M234.01,422.04c0.52-1.11-0.77-2.2-1.78-1.5c-6.45,4.48-12.57,9.03-19.23,12.59
		c-10.38,5.54-21.05,10.84-32.13,14.71c-19.35,6.76-35.94,0.73-50-13.47c-0.26-0.27-0.57-0.49-1.39-1.12
		c-0.51-0.4-1.25-0.32-1.66,0.18c-5.39,6.53-11.32,12.72-15.85,19.8c-7.69,12.05-14.33,24.77-21.51,37.15
		c-1.68,2.9-2.98,7.23-7.23,5.99c-1.01-0.29-1.26-5.86-0.61-8.72c3.11-13.87,10.69-25.76,17.66-37.87
		c3.38-5.87,7.14-11.52,10.9-17.47c0.43-0.69,0.08-1.6-0.71-1.81c-0.77-0.2-1.52-0.4-2.48-0.66c0.86-0.75,1.34-1.51,1.77-1.48
		c4.55,0.32,6.5-3.05,8.77-6c21.62-28.12,43.21-56.26,64.91-84.31c2.32-3,4.98-5.97,8.08-8.07c1.68-1.14,4.16-1.09,6.45-1.32
		c0.64-0.06,1.22,0.39,1.3,1.03c0.32,2.36,1.06,4.98,0.1,6.54c-4.96,8.06-9.91,16.3-16.12,23.38
		c-17.12,19.53-34.34,39.01-52.5,57.55c-16.86,17.2-28.21,37.7-39.17,58.65c-0.2,0.38-0.18,0.88-0.3,1.56
		c6.3-9.83,12.06-19.7,18.71-28.93c5.33-7.4,11.14-14.68,17.86-20.76c4.78-4.33,11.3-6.89,17.29-9.71
		c17.47-8.22,35.25-15.81,52.54-24.39c7.23-3.59,13.49-9.11,20.31-13.58c0.79-0.52,1.78-0.73,2.79-0.92
		c0.88-0.16,1.61,0.66,1.37,1.51c-0.32,1.12-0.67,2.21-1.41,2.84c-13.6,11.57-29.39,19.46-45.59,26.59
		c-11.28,4.96-22.69,9.62-33.93,14.66c-8.95,4.01-8.78,5.96-0.91,12.06c13.49,10.46,28.11,11.48,43.42,5.69
		c23.99-9.07,44.88-23.26,63.67-40.53c3.23-2.97,5.13-7.34,7.85-10.91c7.66-10.05,15.35-20.08,23.22-29.97
		c1.61-2.03,3.85-3.83,6.17-4.95c1.5-0.72,3.4-0.59,5.22-0.62c0.61-0.01,1.12,0.43,1.21,1.03c0.29,2.07,0.93,4.36,0.08,5.74
		c-2.94,4.8-6.34,9.43-10.2,13.53c-8.56,9.09-17.71,17.61-26.21,26.75c-4.71,5.06-9.56,10.39-12.66,16.47
		c-7.31,14.35-13.86,29.11-20.15,43.95c-1.83,4.31-2.13,9.41-2.45,14.19c-0.36,5.27,2.05,7.28,7.13,5.66
		c5.51-1.76,11.27-3.69,15.95-6.95c14.72-10.27,29.02-21.14,43.39-31.89c1.27-0.95,2.49-1.98,3.67-3.06
		c1.04-0.96-0.13-2.62-1.37-1.96c-4.22,2.25-8.44,4.49-12.68,6.69c-3.13,1.62-7.07,2.71-8.91-0.77c-1.15-2.17-0.55-6.43,0.94-8.61
		c6.02-8.84,14.07-15.48,24.25-19.26c5.62-2.09,10.63-1.42,14.71,3.05c0.37,0.41,0.97,0.54,1.46,0.28c0.42-0.22,0.77-0.4,1.14-0.5
		c1.38-0.4,2.76-0.77,4.14-1.14c0.85-0.23,1.65,0.51,1.49,1.38c-0.28,1.51-0.55,3.03-1.13,4.42c-1.59,3.81-3.97,7.33-5.22,11.22
		c-1.68,5.2,0.2,7.36,5.47,5.44c10.89-3.97,21.57-8.58,32.06-13.52c5.07-2.39,9.41-6.27,14.27-9.16c0.96-0.57,2.24-0.59,3.52-0.63
		c0.79-0.02,1.38,0.7,1.21,1.47c-0.25,1.1-0.5,2.19-1.08,3.06c-3.11,4.7-6.73,9.09-9.59,13.93c-0.84,1.41-0.58,3.46-0.55,5.38
		c0.01,0.65,0.53,1.16,1.18,1.17c1.74,0.03,3.6,0.25,4.83-0.53c8.95-5.69,17.67-11.73,26.47-17.66c1.1-0.74,2.2-1.48,3.31-2.23
		c1.65,1.49,1.42,1.28,3.07,2.77c-0.01,0.03-0.03,0.05-0.04,0.08c-1.59,3.07-3.69,6.02-4.56,9.29c-1.17,4.39,0.75,6.74,5.24,5.96
		c5.66-0.99,11.46-2.48,16.58-5.01c8.79-4.33,17.02-9.78,25.66-14.43c3.3-1.77,7-3.24,10.66-3.72c2.14-0.28,4.52,1.22,7.83,2.47
		c0.5,0.19,1.06,0.01,1.38-0.42c4.07-5.59,8.9-12.08,13.55-18.69c12.45-17.7,25.19-35.21,37.29-53.16c0.99-1.47,3.9-5.8,6.46-5.31
		c0.08,0.02,1.03,0.21,1.49,1c1,1.72-1.18,4.71-1.84,5.64c-11.54,16.09-21.33,33.38-32.78,49.54
		c-10.11,14.26-21.11,27.89-27.74,44.27c-1.93,4.77-3.07,9.85-4.95,14.64c-1.08,2.74-2.79,5.27-4.5,7.7c-0.35,0.5-1.18,0.66-2,0.83
		c-0.57,0.12-1.14-0.19-1.36-0.73c-0.3-0.73-0.6-1.47-0.42-2.06c1.35-4.46,2.65-8.97,4.54-13.21c2.52-5.68,5.25-11.28,8.14-17.22
		c0.59-1.21-0.94-2.32-1.91-1.4c-0.09,0.09-0.19,0.18-0.28,0.27c-5.71,5.34-11.37,10.74-17.3,15.82c-2.92,2.5-6.65,4.81-10.45,2.13
		c-3.84-2.71-2.49-6.79-1.36-10.53c0.09-0.31,0.17-0.63,0.25-0.97c0.21-0.97-0.77-1.76-1.67-1.35c-4.53,2.05-8.65,4.04-12.93,5.6
		c-3.56,1.3-7.35,2.28-11.11,2.66c-7.85,0.8-10.82-1.31-11.62-8.63c-0.1-0.89-1.08-1.38-1.83-0.91c-3.63,2.27-7.07,4.51-10.64,6.52
		c-3.47,1.96-6.97,4.17-10.75,5.14c-2.73,0.7-7.32,0.63-8.59-1.02c-1.75-2.28-1.61-6.39-1.42-9.66c0.06-1.1,0.54-2.17,1.16-3.34
		c0.56-1.05-0.58-2.2-1.63-1.63c-5.51,3-10.6,5.95-15.99,8.15c-6.42,2.62-13.17,4.79-19.98,5.97c-6.95,1.2-9.74-1.05-9.76-8.03
		c0-1.03-1.21-1.59-1.99-0.91c-2.8,2.42-5.25,4.52-7.65,6.65c-15.84,14.07-32.08,27.64-50.89,37.67c-5.1,2.72-10.55,5.06-16.1,6.6
		c-6.89,1.92-12.15-1.82-11.63-8.89c0.62-8.35,1.94-16.95,4.79-24.78C223.86,443.08,229.01,432.84,234.01,422.04z M159.76,379.39
		c10.35-11.26,20.41-22.76,29.08-35.4c0.84-1.23-0.87-2.6-1.88-1.51c-10.39,11.2-19.79,23.22-29.05,35.37
		C156.99,379.06,158.72,380.52,159.76,379.39z M272.22,441.49c7.31-1.82,24.44-12.03,29.32-17.47c0.53-0.59,0.35-1.5-0.34-1.88
		c-7.84-4.2-24.84,5.56-30.35,17.69C270.43,440.74,271.26,441.73,272.22,441.49z M425.26,445.28c7.28-2.45,18.66-12.85,22.57-20.54
		c0.37-0.72-0.09-1.58-0.89-1.73c-8.14-1.5-21.55,10.35-23.27,20.96C423.54,444.86,424.41,445.57,425.26,445.28z M286.25,361.21
		l-0.14-0.12c-0.41-0.36-1.04-0.31-1.4,0.11c-6.07,7.09-12.13,14.18-18.2,21.28c-0.46,0.54-0.4,1.35,0.14,1.82l0.01,0.01
		c0.25,0.22,0.64,0.19,0.86-0.06c6.27-7.21,12.55-14.42,18.82-21.63C286.71,362.2,286.67,361.57,286.25,361.21z"/>
</g>
</svg>
